<svg xmlns="http://www.w3.org/2000/svg" xmlns:xlink="http://www.w3.org/1999/xlink" width="500" zoomAndPan="magnify" viewBox="0 0 375 374.999991" height="500" preserveAspectRatio="xMidYMid meet" version="1.0"><defs><g/><clipPath id="e7bfe1698a"><path d="M 59 4.515625 L 321 4.515625 L 321 368 L 59 368 Z M 59 4.515625 " clip-rule="nonzero"/></clipPath></defs><g clip-path="url(#e7bfe1698a)"><path fill="#383e48" d="M 260.945312 239.695312 C 276.394531 245.78125 292.957031 261.210938 305.136719 282.429688 C 324.742188 316.703125 325.1875 353.351562 306.175781 364.183594 C 287.164062 375.015625 255.898438 355.949219 236.289062 321.601562 C 226.488281 304.460938 221.511719 286.730469 221.289062 271.894531 L 203.390625 239.695312 Z M 176.726562 239.695312 L 158.753906 271.894531 C 158.53125 286.730469 153.554688 304.460938 143.753906 321.601562 C 124.144531 355.875 92.878906 375.015625 73.867188 364.183594 C 54.855469 353.351562 55.375 316.703125 74.90625 282.429688 C 87.085938 261.210938 103.722656 245.78125 119.167969 239.695312 Z M 246.539062 249.710938 C 243.941406 250.007812 241.488281 250.75 239.261719 252.011719 C 224.777344 260.246094 224.480469 286.953125 238.59375 311.585938 C 252.628906 336.214844 275.800781 349.570312 290.28125 341.335938 C 304.691406 333.175781 305.0625 306.464844 290.953125 281.835938 C 282.410156 266.847656 270.527344 256.089844 259.238281 251.714844 Z M 133.503906 249.710938 C 136.101562 250.007812 138.554688 250.75 140.78125 252.011719 C 155.265625 260.246094 155.5625 286.953125 141.449219 311.585938 C 127.414062 336.214844 104.242188 349.570312 89.757812 341.335938 C 75.351562 333.175781 75.054688 306.464844 89.164062 281.835938 C 97.707031 266.847656 109.589844 256.089844 120.878906 251.714844 Z M 169.226562 132.046875 L 143.382812 132.046875 L 72.304688 4.515625 Z M 236.734375 132.046875 L 210.890625 132.046875 L 307.808594 4.515625 Z M 236.734375 132.046875 " fill-opacity="1" fill-rule="evenodd"/></g><g fill="#383e48" fill-opacity="1"><g transform="translate(5.227378, 212.214009)"><g><path d="M 13.757812 -2.667969 L 9.898438 -22.574219 L 26.941406 -25.878906 L 25.300781 -34.339844 L 8.257812 -31.035156 L 6.617188 -39.496094 L 21.285156 -42.339844 L 19.632812 -50.863281 L -4.472656 -46.1875 L 4.320312 -0.839844 Z M 13.757812 -2.667969 "/></g></g></g><g fill="#383e48" fill-opacity="1"><g transform="translate(38.789849, 205.630899)"><g><path d="M 17.464844 -10.691406 L 26.125 -3.898438 L 38.757812 -5.78125 L 27.3125 -14.855469 C 33.25 -18.753906 36.28125 -25.347656 35.054688 -33.566406 C 33.570312 -43.5 24.15625 -50.308594 13.421875 -48.707031 L -2.460938 -46.339844 L 4.355469 -0.648438 L 13.859375 -2.066406 L 12.679688 -9.980469 Z M 11.398438 -18.566406 L 8.324219 -39.171875 L 14.089844 -40.03125 C 20.589844 -41 24.578125 -36.957031 25.414062 -31.375 C 26.425781 -24.566406 22.867188 -20.277344 15.324219 -19.148438 Z M 11.398438 -18.566406 "/></g></g></g><g fill="#383e48" fill-opacity="1"><g transform="translate(81.13367, 199.408302)"><g><path d="M 32.875 -3.410156 L 31.976562 -12.042969 L 13.042969 -10.082031 L 11.847656 -21.613281 L 29.117188 -23.40625 L 28.226562 -31.976562 L 10.957031 -30.1875 L 10.070312 -38.757812 L 24.933594 -40.300781 L 24.039062 -48.9375 L -0.386719 -46.402344 L 4.378906 -0.453125 Z M 32.875 -3.410156 "/></g></g></g><g fill="#383e48" fill-opacity="1"><g transform="translate(117.463739, 195.660957)"><g><path d="M 32.984375 -2.050781 L 32.445312 -10.714844 L 13.449219 -9.535156 L 12.726562 -21.105469 L 30.054688 -22.183594 L 29.519531 -30.785156 L 12.191406 -29.710938 L 11.65625 -38.3125 L 26.574219 -39.238281 L 26.035156 -47.902344 L 1.527344 -46.378906 L 4.394531 -0.273438 Z M 32.984375 -2.050781 "/></g></g></g><g fill="#383e48" fill-opacity="1"><g transform="translate(153.989657, 193.493116)"><g/></g></g><g fill="#383e48" fill-opacity="1"><g transform="translate(181.156698, 192.727848)"><g><path d="M 15.691406 -20.316406 C 20.152344 -19.78125 22.609375 -17.464844 22.574219 -13.742188 C 22.546875 -10.765625 20.042969 -8.246094 16.882812 -8.277344 C 14.152344 -8.300781 11.988281 -9.003906 9.90625 -11.691406 L 1.914062 -5.933594 C 6.273438 -1.058594 11.523438 0.914062 16.796875 0.960938 C 24.917969 1.039062 32.480469 -5.339844 32.5625 -14.332031 C 32.648438 -23.261719 26.1875 -28.652344 18.316406 -29.222656 C 13.421875 -29.578125 11.886719 -31.515625 11.90625 -33.621094 C 11.929688 -36.164062 13.679688 -37.699219 16.222656 -37.675781 C 17.835938 -37.660156 19.871094 -36.648438 21.101562 -35.335938 L 28.714844 -40.785156 C 25.222656 -45.03125 20.898438 -46.808594 16.308594 -46.851562 C 9.921875 -46.910156 2.679688 -41.460938 2.605469 -33.648438 C 2.539062 -26.390625 7.699219 -21.320312 15.691406 -20.316406 Z M 15.691406 -20.316406 "/></g></g></g><g fill="#383e48" fill-opacity="1"><g transform="translate(216.591613, 193.001728)"><g><path d="M 13.992188 0.746094 L 14.367188 -6.253906 L 19.875 -5.960938 C 31.457031 -5.34375 40.277344 -13.628906 40.910156 -25.457031 C 41.40625 -34.804688 33.910156 -44.457031 22.578125 -45.058594 L 6.851562 -45.894531 L 4.394531 0.234375 Z M 14.832031 -14.984375 L 15.988281 -36.714844 L 21.808594 -36.40625 C 28.0625 -36.074219 31.296875 -30.375 31.011719 -24.988281 C 30.695312 -19.042969 26.78125 -14.347656 20.09375 -14.703125 Z M 14.832031 -14.984375 "/></g></g></g><g fill="#383e48" fill-opacity="1"><g transform="translate(258.949021, 195.475045)"><g><path d="M 18.023438 -44.78125 L 8.449219 -45.628906 L 4.386719 0.386719 L 13.960938 1.234375 Z M 18.023438 -44.78125 "/></g></g></g><g fill="#383e48" fill-opacity="1"><g transform="translate(278.385166, 197.003931)"><g><path d="M 19.691406 -5.621094 L 26.214844 3.25 L 38.890625 4.820312 L 30.296875 -6.992188 C 37.0625 -9.152344 41.746094 -14.695312 42.769531 -22.941406 C 44.003906 -32.910156 36.757812 -41.992188 25.988281 -43.328125 L 10.050781 -45.300781 L 4.367188 0.542969 L 13.90625 1.722656 L 14.890625 -6.214844 Z M 15.957031 -14.828125 L 18.523438 -35.503906 L 24.304688 -34.789062 C 30.828125 -33.980469 33.585938 -29.015625 32.894531 -23.414062 C 32.046875 -16.582031 27.464844 -13.402344 19.898438 -14.339844 Z M 15.957031 -14.828125 "/></g></g></g><g fill="#383e48" fill-opacity="1"><g transform="translate(320.952623, 202.507313)"><g><path d="M 21.132812 -43.402344 L 11.640625 -44.921875 L 4.347656 0.695312 L 13.835938 2.210938 Z M 21.132812 -43.402344 "/></g></g></g><g fill="#383e48" fill-opacity="1"><g transform="translate(340.26648, 205.474989)"><g><path d="M 21.796875 4.199219 L 28.890625 -32.640625 L 40.828125 -30.339844 L 42.46875 -38.863281 L 9.894531 -45.136719 L 8.25 -36.613281 L 19.453125 -34.457031 L 12.359375 2.378906 Z M 21.796875 4.199219 "/></g></g></g><g fill="#383e48" fill-opacity="1"><g transform="translate(119.191652, 230.516024)"><g><path d="M 11.234375 -15.3125 L 12.515625 -1.125 L 10.65625 -0.96875 L 10.078125 -7.40625 L 2.84375 -6.75 L 3.421875 -0.3125 L 1.578125 -0.140625 L 0.296875 -14.328125 L 2.140625 -14.5 L 2.703125 -8.28125 L 9.9375 -8.9375 L 9.375 -15.15625 Z M 11.234375 -15.3125 "/></g></g></g><g fill="#383e48" fill-opacity="1"><g transform="translate(136.082619, 229.0241)"><g><path d="M 9.78125 -3.828125 L 3.5625 -3.421875 L 2.640625 -0.171875 L 0.671875 -0.046875 L 4.875 -14.53125 L 7.03125 -14.671875 L 13.078125 -0.875 L 11.109375 -0.734375 Z M 9.140625 -5.296875 L 6.09375 -12.3125 L 3.984375 -4.953125 Z M 9.140625 -5.296875 "/></g></g></g><g fill="#383e48" fill-opacity="1"><g transform="translate(152.677442, 227.983765)"><g><path d="M 2.734375 -14.40625 L 3.4375 -0.171875 L 1.578125 -0.078125 L 0.875 -14.3125 Z M 2.734375 -14.40625 "/></g></g></g><g fill="#383e48" fill-opacity="1"><g transform="translate(160.54605, 227.590761)"><g><path d="M 9.078125 -0.296875 L 5.5 -6.015625 L 3.25 -5.9375 L 3.4375 -0.109375 L 1.578125 -0.046875 L 1.109375 -14.296875 L 5.703125 -14.453125 C 6.785156 -14.484375 7.703125 -14.328125 8.453125 -13.984375 C 9.210938 -13.648438 9.785156 -13.171875 10.171875 -12.546875 C 10.566406 -11.929688 10.773438 -11.222656 10.796875 -10.421875 C 10.828125 -9.441406 10.570312 -8.566406 10.03125 -7.796875 C 9.488281 -7.035156 8.660156 -6.507812 7.546875 -6.21875 L 11.3125 -0.375 Z M 3.203125 -7.4375 L 5.9375 -7.53125 C 6.945312 -7.5625 7.695312 -7.832031 8.1875 -8.34375 C 8.675781 -8.851562 8.90625 -9.523438 8.875 -10.359375 C 8.84375 -11.203125 8.566406 -11.847656 8.046875 -12.296875 C 7.535156 -12.742188 6.769531 -12.953125 5.75 -12.921875 L 3.015625 -12.828125 Z M 3.203125 -7.4375 "/></g></g></g><g fill="#383e48" fill-opacity="1"><g transform="translate(175.820874, 227.145371)"><g/></g></g><g fill="#383e48" fill-opacity="1"><g transform="translate(184.127741, 227.009764)"><g><path d="M 6.09375 0.140625 C 5.15625 0.140625 4.3125 -0.0234375 3.5625 -0.359375 C 2.820312 -0.691406 2.238281 -1.15625 1.8125 -1.75 C 1.394531 -2.34375 1.179688 -3.023438 1.171875 -3.796875 L 3.15625 -3.796875 C 3.21875 -3.128906 3.488281 -2.566406 3.96875 -2.109375 C 4.457031 -1.660156 5.164062 -1.4375 6.09375 -1.4375 C 6.976562 -1.4375 7.675781 -1.65625 8.1875 -2.09375 C 8.695312 -2.539062 8.953125 -3.109375 8.953125 -3.796875 C 8.953125 -4.347656 8.800781 -4.789062 8.5 -5.125 C 8.207031 -5.46875 7.832031 -5.726562 7.375 -5.90625 C 6.925781 -6.082031 6.320312 -6.273438 5.5625 -6.484375 C 4.625 -6.734375 3.867188 -6.976562 3.296875 -7.21875 C 2.734375 -7.46875 2.25 -7.851562 1.84375 -8.375 C 1.445312 -8.894531 1.25 -9.601562 1.25 -10.5 C 1.25 -11.269531 1.445312 -11.953125 1.84375 -12.546875 C 2.238281 -13.148438 2.789062 -13.613281 3.5 -13.9375 C 4.21875 -14.269531 5.039062 -14.4375 5.96875 -14.4375 C 7.3125 -14.4375 8.40625 -14.101562 9.25 -13.4375 C 10.101562 -12.769531 10.585938 -11.882812 10.703125 -10.78125 L 8.65625 -10.78125 C 8.582031 -11.320312 8.289062 -11.800781 7.78125 -12.21875 C 7.28125 -12.632812 6.613281 -12.84375 5.78125 -12.84375 C 5.007812 -12.84375 4.378906 -12.640625 3.890625 -12.234375 C 3.398438 -11.835938 3.15625 -11.273438 3.15625 -10.546875 C 3.15625 -10.035156 3.300781 -9.613281 3.59375 -9.28125 C 3.882812 -8.957031 4.242188 -8.707031 4.671875 -8.53125 C 5.097656 -8.363281 5.703125 -8.171875 6.484375 -7.953125 C 7.421875 -7.691406 8.175781 -7.4375 8.75 -7.1875 C 9.320312 -6.9375 9.8125 -6.546875 10.21875 -6.015625 C 10.632812 -5.492188 10.84375 -4.785156 10.84375 -3.890625 C 10.84375 -3.191406 10.65625 -2.535156 10.28125 -1.921875 C 9.914062 -1.304688 9.367188 -0.804688 8.640625 -0.421875 C 7.921875 -0.046875 7.070312 0.140625 6.09375 0.140625 Z M 6.09375 0.140625 "/></g></g></g><g fill="#383e48" fill-opacity="1"><g transform="translate(198.945826, 227.038796)"><g><path d="M 10.078125 -2.9375 L 3.859375 -3.078125 L 2.640625 0.0625 L 0.671875 0.015625 L 6.15625 -14.046875 L 8.3125 -13.984375 L 13.109375 0.296875 L 11.140625 0.25 Z M 9.578125 -4.46875 L 7.15625 -11.734375 L 4.421875 -4.59375 Z M 9.578125 -4.46875 "/></g></g></g><g fill="#383e48" fill-opacity="1"><g transform="translate(215.551315, 227.469973)"><g><path d="M 3.5 -1.375 L 8.46875 -1.15625 L 8.40625 0.359375 L 1.578125 0.0625 L 2.1875 -14.171875 L 4.046875 -14.09375 Z M 3.5 -1.375 "/></g></g></g><g fill="#383e48" fill-opacity="1"><g transform="translate(227.192507, 227.959749)"><g><path d="M 8 0.65625 C 6.675781 0.570312 5.492188 0.1875 4.453125 -0.5 C 3.410156 -1.195312 2.609375 -2.113281 2.046875 -3.25 C 1.484375 -4.394531 1.242188 -5.664062 1.328125 -7.0625 C 1.421875 -8.445312 1.820312 -9.675781 2.53125 -10.75 C 3.238281 -11.820312 4.148438 -12.628906 5.265625 -13.171875 C 6.390625 -13.722656 7.613281 -13.957031 8.9375 -13.875 C 10.28125 -13.789062 11.472656 -13.398438 12.515625 -12.703125 C 13.566406 -12.015625 14.367188 -11.097656 14.921875 -9.953125 C 15.484375 -8.816406 15.71875 -7.546875 15.625 -6.140625 C 15.539062 -4.734375 15.144531 -3.5 14.4375 -2.4375 C 13.738281 -1.382812 12.828125 -0.582031 11.703125 -0.03125 C 10.578125 0.507812 9.34375 0.738281 8 0.65625 Z M 8.109375 -0.953125 C 9.109375 -0.890625 10.019531 -1.0625 10.84375 -1.46875 C 11.664062 -1.882812 12.332031 -2.503906 12.84375 -3.328125 C 13.351562 -4.148438 13.644531 -5.128906 13.71875 -6.265625 C 13.800781 -7.410156 13.640625 -8.421875 13.234375 -9.296875 C 12.828125 -10.171875 12.242188 -10.863281 11.484375 -11.375 C 10.734375 -11.894531 9.851562 -12.1875 8.84375 -12.25 C 7.84375 -12.3125 6.929688 -12.132812 6.109375 -11.71875 C 5.285156 -11.3125 4.617188 -10.703125 4.109375 -9.890625 C 3.609375 -9.078125 3.316406 -8.097656 3.234375 -6.953125 C 3.160156 -5.816406 3.320312 -4.804688 3.71875 -3.921875 C 4.125 -3.035156 4.707031 -2.332031 5.46875 -1.8125 C 6.238281 -1.300781 7.117188 -1.015625 8.109375 -0.953125 Z M 8.109375 -0.953125 "/></g></g></g><g fill="#383e48" fill-opacity="1"><g transform="translate(246.019046, 229.221481)"><g><path d="M 12.734375 1.15625 L 10.875 0.984375 L 4.4375 -10.984375 L 3.421875 0.3125 L 1.578125 0.140625 L 2.859375 -14.078125 L 4.703125 -13.90625 L 11.140625 -1.9375 L 12.15625 -13.234375 L 14.015625 -13.0625 Z M 12.734375 1.15625 "/></g></g></g><g fill="#383e48" fill-opacity="1"><g transform="translate(145.195047, 71.537046)"><g><path d="M 18.5 0 L 18.5 -26.765625 L 41.417969 -26.765625 L 41.417969 -38.144531 L 18.5 -38.144531 L 18.5 -49.519531 L 38.226562 -49.519531 L 38.226562 -60.980469 L 5.8125 -60.980469 L 5.8125 0 Z M 18.5 0 "/></g></g></g><g fill="#383e48" fill-opacity="1"><g transform="translate(189.066026, 71.537046)"><g><path d="M 20.464844 -27.011719 C 26.355469 -26.355469 29.628906 -23.328125 29.628906 -18.417969 C 29.628906 -14.488281 26.355469 -11.132812 22.183594 -11.132812 C 18.582031 -11.132812 15.714844 -12.03125 12.933594 -15.550781 L 2.457031 -7.859375 C 8.265625 -1.472656 15.222656 1.0625 22.183594 1.0625 C 32.90625 1.0625 42.808594 -7.449219 42.808594 -19.316406 C 42.808594 -31.105469 34.214844 -38.144531 23.820312 -38.796875 C 17.351562 -39.207031 15.304688 -41.746094 15.304688 -44.527344 C 15.304688 -47.882812 17.597656 -49.929688 20.953125 -49.929688 C 23.082031 -49.929688 25.785156 -48.621094 27.421875 -46.902344 L 37.40625 -54.1875 C 32.742188 -59.75 27.011719 -62.042969 20.953125 -62.042969 C 12.523438 -62.042969 3.027344 -54.757812 3.027344 -44.445312 C 3.027344 -34.867188 9.902344 -28.238281 20.464844 -27.011719 Z M 20.464844 -27.011719 "/></g></g></g></svg>